<svg width="168" height="130" viewBox="0 0 168 130" fill="none" xmlns="http://www.w3.org/2000/svg">
<circle opacity="0.4" cx="83" cy="65" r="63" stroke="#55697B" stroke-width="4"/>
<path d="M57.0586 60.0234C58.3086 60.0234 59.3438 59.8086 60.1641 59.3789C60.9974 58.9492 61.6159 58.3698 62.0195 57.6406C62.4362 56.8984 62.6445 56.0586 62.6445 55.1211C62.6445 54.0404 62.4622 53.1289 62.0977 52.3867C61.7331 51.6315 61.1862 51.0651 60.457 50.6875C59.7279 50.2969 58.8099 50.1016 57.7031 50.1016C56.6875 50.1016 55.7956 50.3034 55.0273 50.707C54.2591 51.1107 53.6602 51.6771 53.2305 52.4062C52.8008 53.1354 52.5859 54.0013 52.5859 55.0039H48.9336C48.9336 53.5456 49.2982 52.2305 50.0273 51.0586C50.7565 49.8737 51.7786 48.9297 53.0938 48.2266C54.4089 47.5234 55.9453 47.1719 57.7031 47.1719C59.4219 47.1719 60.9258 47.4779 62.2148 48.0898C63.5039 48.6888 64.5065 49.5872 65.2227 50.7852C65.9388 51.9701 66.2969 53.4414 66.2969 55.1992C66.2969 55.9284 66.1276 56.6966 65.7891 57.5039C65.4635 58.3112 64.9492 59.0729 64.2461 59.7891C63.556 60.4922 62.6576 61.0716 61.5508 61.5273C60.444 61.9701 59.1159 62.1914 57.5664 62.1914H54.4805V60.0234H57.0586ZM54.4805 60.8047H57.5664C59.3763 60.8047 60.8737 61.0195 62.0586 61.4492C63.2435 61.8789 64.1745 62.4518 64.8516 63.168C65.5417 63.8711 66.0234 64.6523 66.2969 65.5117C66.5833 66.3711 66.7266 67.224 66.7266 68.0703C66.7266 69.8411 66.3294 71.3451 65.5352 72.582C64.7539 73.819 63.6797 74.763 62.3125 75.4141C60.9583 76.0651 59.4284 76.3906 57.7227 76.3906C56.4857 76.3906 55.3203 76.2148 54.2266 75.8633C53.1328 75.5117 52.1693 75.0039 51.3359 74.3398C50.5156 73.6628 49.8711 72.8359 49.4023 71.8594C48.9336 70.8698 48.6992 69.7435 48.6992 68.4805H52.3516C52.3516 69.4701 52.5664 70.3424 52.9961 71.0977C53.4388 71.8398 54.0573 72.4193 54.8516 72.8359C55.6589 73.2526 56.6159 73.4609 57.7227 73.4609C59.3763 73.4609 60.6784 73.0182 61.6289 72.1328C62.5924 71.2474 63.0742 69.9193 63.0742 68.1484C63.0742 66.9635 62.8268 65.987 62.332 65.2188C61.8372 64.4505 61.1406 63.8841 60.2422 63.5195C59.3438 63.1419 58.2826 62.9531 57.0586 62.9531H54.4805V60.8047ZM90.9258 69.3789H70.3789V67.2695L83.0938 47.5625H86.0625L82.8984 53.2461L74.5 66.4492H90.9258V69.3789ZM86.9805 76H83.3281V47.5625H86.9805V76ZM100.574 73.832L98.5234 72.543L112.41 50.3164L114.461 51.6055L100.574 73.832ZM113.602 76.4102C112.391 76.4102 111.342 76.1432 110.457 75.6094C109.585 75.0755 108.914 74.3659 108.445 73.4805C107.977 72.5951 107.742 71.6185 107.742 70.5508V69.0273C107.742 67.9596 107.977 66.9831 108.445 66.0977C108.914 65.2122 109.578 64.5026 110.438 63.9688C111.31 63.4349 112.352 63.168 113.562 63.168C114.786 63.168 115.828 63.4349 116.688 63.9688C117.56 64.5026 118.23 65.2122 118.699 66.0977C119.168 66.9831 119.402 67.9596 119.402 69.0273V70.5508C119.402 71.6185 119.168 72.5951 118.699 73.4805C118.243 74.3659 117.579 75.0755 116.707 75.6094C115.848 76.1432 114.812 76.4102 113.602 76.4102ZM113.602 74.0664C114.305 74.0664 114.884 73.9036 115.34 73.5781C115.796 73.2396 116.134 72.8034 116.355 72.2695C116.577 71.7357 116.688 71.1628 116.688 70.5508V69.0273C116.688 68.1029 116.427 67.2891 115.906 66.5859C115.398 65.8698 114.617 65.5117 113.562 65.5117C112.521 65.5117 111.74 65.8698 111.219 66.5859C110.711 67.2891 110.457 68.1029 110.457 69.0273V70.5508C110.457 71.1497 110.568 71.7227 110.789 72.2695C111.023 72.8034 111.375 73.2396 111.844 73.5781C112.312 73.9036 112.898 74.0664 113.602 74.0664ZM99.7539 60.375C98.543 60.375 97.4948 60.1081 96.6094 59.5742C95.737 59.0404 95.0664 58.3307 94.5977 57.4453C94.1289 56.5599 93.8945 55.5898 93.8945 54.5352V53.0312C93.8945 51.9505 94.1289 50.9674 94.5977 50.082C95.0664 49.1966 95.737 48.487 96.6094 47.9531C97.4818 47.4193 98.5169 47.1523 99.7148 47.1523C100.939 47.1523 101.987 47.4193 102.859 47.9531C103.732 48.487 104.402 49.1966 104.871 50.082C105.34 50.9674 105.574 51.9505 105.574 53.0312V54.5352C105.574 55.5898 105.34 56.5599 104.871 57.4453C104.402 58.3307 103.732 59.0404 102.859 59.5742C102 60.1081 100.965 60.375 99.7539 60.375ZM99.7539 58.0312C100.457 58.0312 101.036 57.8685 101.492 57.543C101.948 57.2044 102.286 56.7682 102.508 56.2344C102.729 55.7005 102.84 55.1341 102.84 54.5352V53.0312C102.84 52.4193 102.723 51.8464 102.488 51.3125C102.267 50.7656 101.922 50.3294 101.453 50.0039C100.997 49.6654 100.418 49.4961 99.7148 49.4961C99.0247 49.4961 98.4518 49.6654 97.9961 50.0039C97.5404 50.3294 97.1953 50.7656 96.9609 51.3125C96.7396 51.8464 96.6289 52.4193 96.6289 53.0312V54.5352C96.6289 55.1341 96.7396 55.7005 96.9609 56.2344C97.1953 56.7682 97.5404 57.2044 97.9961 57.543C98.4648 57.8685 99.0508 58.0312 99.7539 58.0312Z" fill="#55697B"/>
<mask id="path-3-inside-1_4246_3368" fill="white">
<path d="M90.2192 2.08772C90.3247 1.16875 91.1557 0.507053 92.0717 0.636145C103.369 2.22836 114.059 6.76812 123.059 13.8115C132.5 21.1993 139.713 31.0538 143.902 42.2855C148.091 53.5172 149.093 65.6886 146.796 77.4539C144.606 88.6708 139.5 99.1021 132.004 107.703C131.397 108.401 130.335 108.445 129.654 107.819C128.972 107.194 128.929 106.136 129.536 105.438C136.614 97.2921 141.437 87.4227 143.508 76.8121C145.687 65.6531 144.737 54.109 140.763 43.4561C136.79 32.8032 129.949 23.4566 120.995 16.4495C112.481 9.78682 102.373 5.48616 91.6896 3.96519C90.7738 3.83482 90.1138 3.00669 90.2192 2.08772Z"/>
</mask>
<path d="M90.2192 2.08772C90.3247 1.16875 91.1557 0.507053 92.0717 0.636145C103.369 2.22836 114.059 6.76812 123.059 13.8115C132.5 21.1993 139.713 31.0538 143.902 42.2855C148.091 53.5172 149.093 65.6886 146.796 77.4539C144.606 88.6708 139.5 99.1021 132.004 107.703C131.397 108.401 130.335 108.445 129.654 107.819C128.972 107.194 128.929 106.136 129.536 105.438C136.614 97.2921 141.437 87.4227 143.508 76.8121C145.687 65.6531 144.737 54.109 140.763 43.4561C136.79 32.8032 129.949 23.4566 120.995 16.4495C112.481 9.78682 102.373 5.48616 91.6896 3.96519C90.7738 3.83482 90.1138 3.00669 90.2192 2.08772Z" stroke="#55697B" stroke-width="8" stroke-linejoin="round" mask="url(#path-3-inside-1_4246_3368)"/>
<ellipse cx="129.977" cy="106.848" rx="2.9771" ry="2.84811" fill="#55697B"/>
</svg>
