<svg width="168" height="130" viewBox="0 0 168 130" fill="none" xmlns="http://www.w3.org/2000/svg">
<circle opacity="0.4" cx="84" cy="65" r="63" stroke="#55697B" stroke-width="4"/>
<mask id="path-2-inside-1_4077_2872" fill="white">
<path d="M91.2192 2.08772C91.3247 1.16875 92.1557 0.507053 93.0717 0.636145C104.369 2.22836 115.059 6.76812 124.059 13.8115C133.5 21.1993 140.713 31.0538 144.902 42.2855C149.091 53.5172 150.093 65.6886 147.796 77.4539C145.606 88.6708 140.5 99.1021 133.004 107.703C132.397 108.401 131.335 108.445 130.654 107.819C129.972 107.194 129.929 106.136 130.536 105.438C137.614 97.2921 142.437 87.4227 144.508 76.8121C146.687 65.6531 145.737 54.109 141.763 43.4561C137.79 32.8032 130.949 23.4566 121.995 16.4495C113.481 9.78682 103.373 5.48616 92.6896 3.96519C91.7738 3.83482 91.1138 3.00669 91.2192 2.08772Z"/>
</mask>
<path d="M91.2192 2.08772C91.3247 1.16875 92.1557 0.507053 93.0717 0.636145C104.369 2.22836 115.059 6.76812 124.059 13.8115C133.5 21.1993 140.713 31.0538 144.902 42.2855C149.091 53.5172 150.093 65.6886 147.796 77.4539C145.606 88.6708 140.5 99.1021 133.004 107.703C132.397 108.401 131.335 108.445 130.654 107.819C129.972 107.194 129.929 106.136 130.536 105.438C137.614 97.2921 142.437 87.4227 144.508 76.8121C146.687 65.6531 145.737 54.109 141.763 43.4561C137.79 32.8032 130.949 23.4566 121.995 16.4495C113.481 9.78682 103.373 5.48616 92.6896 3.96519C91.7738 3.83482 91.1138 3.00669 91.2192 2.08772Z" stroke="#55697B" stroke-width="8" stroke-linejoin="round" mask="url(#path-2-inside-1_4077_2872)"/>
<ellipse cx="132.36" cy="106.08" rx="3.12" ry="3.12" fill="#55697B"/>
<path d="M57.0664 60.0234C58.3164 60.0234 59.3516 59.8086 60.1719 59.3789C61.0052 58.9492 61.6237 58.3698 62.0273 57.6406C62.444 56.8984 62.6523 56.0586 62.6523 55.1211C62.6523 54.0404 62.4701 53.1289 62.1055 52.3867C61.7409 51.6315 61.194 51.0651 60.4648 50.6875C59.7357 50.2969 58.8177 50.1016 57.7109 50.1016C56.6953 50.1016 55.8034 50.3034 55.0352 50.707C54.2669 51.1107 53.668 51.6771 53.2383 52.4062C52.8086 53.1354 52.5938 54.0013 52.5938 55.0039H48.9414C48.9414 53.5456 49.306 52.2305 50.0352 51.0586C50.7643 49.8737 51.7865 48.9297 53.1016 48.2266C54.4167 47.5234 55.9531 47.1719 57.7109 47.1719C59.4297 47.1719 60.9336 47.4779 62.2227 48.0898C63.5117 48.6888 64.5143 49.5872 65.2305 50.7852C65.9466 51.9701 66.3047 53.4414 66.3047 55.1992C66.3047 55.9284 66.1354 56.6966 65.7969 57.5039C65.4714 58.3112 64.957 59.0729 64.2539 59.7891C63.5638 60.4922 62.6654 61.0716 61.5586 61.5273C60.4518 61.9701 59.1237 62.1914 57.5742 62.1914H54.4883V60.0234H57.0664ZM54.4883 60.8047H57.5742C59.3841 60.8047 60.8815 61.0195 62.0664 61.4492C63.2513 61.8789 64.1823 62.4518 64.8594 63.168C65.5495 63.8711 66.0312 64.6523 66.3047 65.5117C66.5911 66.3711 66.7344 67.224 66.7344 68.0703C66.7344 69.8411 66.3372 71.3451 65.543 72.582C64.7617 73.819 63.6875 74.763 62.3203 75.4141C60.9661 76.0651 59.4362 76.3906 57.7305 76.3906C56.4935 76.3906 55.3281 76.2148 54.2344 75.8633C53.1406 75.5117 52.1771 75.0039 51.3438 74.3398C50.5234 73.6628 49.8789 72.8359 49.4102 71.8594C48.9414 70.8698 48.707 69.7435 48.707 68.4805H52.3594C52.3594 69.4701 52.5742 70.3424 53.0039 71.0977C53.4466 71.8398 54.0651 72.4193 54.8594 72.8359C55.6667 73.2526 56.6237 73.4609 57.7305 73.4609C59.3841 73.4609 60.6862 73.0182 61.6367 72.1328C62.6003 71.2474 63.082 69.9193 63.082 68.1484C63.082 66.9635 62.8346 65.987 62.3398 65.2188C61.8451 64.4505 61.1484 63.8841 60.25 63.5195C59.3516 63.1419 58.2904 62.9531 57.0664 62.9531H54.4883V60.8047ZM73.375 61.7227L74.8203 47.5625H89.4102V50.8633H77.9062L77.0664 58.6562C77.5742 58.3568 78.2253 58.0768 79.0195 57.8164C79.8268 57.556 80.7513 57.4258 81.793 57.4258C83.5378 57.4258 85.0417 57.8164 86.3047 58.5977C87.5677 59.3789 88.5378 60.4792 89.2148 61.8984C89.9049 63.3177 90.25 64.9974 90.25 66.9375C90.25 68.7474 89.918 70.3685 89.2539 71.8008C88.6029 73.2201 87.6133 74.3398 86.2852 75.1602C84.957 75.9805 83.2773 76.3906 81.2461 76.3906C80.1003 76.3906 79.013 76.2344 77.9844 75.9219C76.9688 75.5964 76.0573 75.1081 75.25 74.457C74.4557 73.793 73.8047 72.9727 73.2969 71.9961C72.7891 71.0065 72.4766 69.8477 72.3594 68.5195H75.8164C76.0378 70.1341 76.6172 71.3646 77.5547 72.2109C78.4922 73.0443 79.7227 73.4609 81.2461 73.4609C82.3789 73.4609 83.3424 73.2005 84.1367 72.6797C84.944 72.1458 85.556 71.3971 85.9727 70.4336C86.3893 69.457 86.5977 68.3047 86.5977 66.9766C86.5977 65.7786 86.3763 64.7044 85.9336 63.7539C85.5039 62.8034 84.8659 62.0482 84.0195 61.4883C83.1862 60.9284 82.1576 60.6484 80.9336 60.6484C79.7227 60.6484 78.8112 60.8112 78.1992 61.1367C77.5872 61.4492 76.9557 61.8919 76.3047 62.4648L73.375 61.7227ZM100.582 73.832L98.5312 72.543L112.418 50.3164L114.469 51.6055L100.582 73.832ZM113.609 76.4102C112.398 76.4102 111.35 76.1432 110.465 75.6094C109.592 75.0755 108.922 74.3659 108.453 73.4805C107.984 72.5951 107.75 71.6185 107.75 70.5508V69.0273C107.75 67.9596 107.984 66.9831 108.453 66.0977C108.922 65.2122 109.586 64.5026 110.445 63.9688C111.318 63.4349 112.359 63.168 113.57 63.168C114.794 63.168 115.836 63.4349 116.695 63.9688C117.568 64.5026 118.238 65.2122 118.707 66.0977C119.176 66.9831 119.41 67.9596 119.41 69.0273V70.5508C119.41 71.6185 119.176 72.5951 118.707 73.4805C118.251 74.3659 117.587 75.0755 116.715 75.6094C115.855 76.1432 114.82 76.4102 113.609 76.4102ZM113.609 74.0664C114.312 74.0664 114.892 73.9036 115.348 73.5781C115.803 73.2396 116.142 72.8034 116.363 72.2695C116.585 71.7357 116.695 71.1628 116.695 70.5508V69.0273C116.695 68.1029 116.435 67.2891 115.914 66.5859C115.406 65.8698 114.625 65.5117 113.57 65.5117C112.529 65.5117 111.747 65.8698 111.227 66.5859C110.719 67.2891 110.465 68.1029 110.465 69.0273V70.5508C110.465 71.1497 110.576 71.7227 110.797 72.2695C111.031 72.8034 111.383 73.2396 111.852 73.5781C112.32 73.9036 112.906 74.0664 113.609 74.0664ZM99.7617 60.375C98.5508 60.375 97.5026 60.1081 96.6172 59.5742C95.7448 59.0404 95.0742 58.3307 94.6055 57.4453C94.1367 56.5599 93.9023 55.5898 93.9023 54.5352V53.0312C93.9023 51.9505 94.1367 50.9674 94.6055 50.082C95.0742 49.1966 95.7448 48.487 96.6172 47.9531C97.4896 47.4193 98.5247 47.1523 99.7227 47.1523C100.947 47.1523 101.995 47.4193 102.867 47.9531C103.74 48.487 104.41 49.1966 104.879 50.082C105.348 50.9674 105.582 51.9505 105.582 53.0312V54.5352C105.582 55.5898 105.348 56.5599 104.879 57.4453C104.41 58.3307 103.74 59.0404 102.867 59.5742C102.008 60.1081 100.973 60.375 99.7617 60.375ZM99.7617 58.0312C100.465 58.0312 101.044 57.8685 101.5 57.543C101.956 57.2044 102.294 56.7682 102.516 56.2344C102.737 55.7005 102.848 55.1341 102.848 54.5352V53.0312C102.848 52.4193 102.73 51.8464 102.496 51.3125C102.275 50.7656 101.93 50.3294 101.461 50.0039C101.005 49.6654 100.426 49.4961 99.7227 49.4961C99.0326 49.4961 98.4596 49.6654 98.0039 50.0039C97.5482 50.3294 97.2031 50.7656 96.9688 51.3125C96.7474 51.8464 96.6367 52.4193 96.6367 53.0312V54.5352C96.6367 55.1341 96.7474 55.7005 96.9688 56.2344C97.2031 56.7682 97.5482 57.2044 98.0039 57.543C98.4727 57.8685 99.0586 58.0312 99.7617 58.0312Z" fill="#55697B"/>
</svg>
