<svg width="168" height="130" viewBox="0 0 168 130" fill="none" xmlns="http://www.w3.org/2000/svg">
<circle opacity="0.4" cx="84" cy="65" r="63" stroke="#55697B" stroke-width="4"/>
<mask id="path-2-inside-1_4077_2864" fill="white">
<path d="M91.2192 2.08772C91.3247 1.16875 92.1557 0.507058 93.0717 0.636139C107.81 2.71314 121.409 9.79008 131.574 20.7084C142.12 32.0358 148.278 46.7545 148.94 62.217C149.603 77.6795 144.727 92.8711 135.188 105.059C125.995 116.807 113.051 125.021 98.5449 128.352C97.6433 128.559 96.7587 127.971 96.5751 127.064C96.3914 126.157 96.9782 125.276 97.8795 125.068C111.604 121.897 123.848 114.115 132.551 102.995C141.597 91.4348 146.222 77.0261 145.594 62.3604C144.965 47.6948 139.124 33.7346 129.122 22.9909C119.5 12.6564 106.636 5.95044 92.6897 3.9652C91.7739 3.83483 91.1138 3.00669 91.2192 2.08772Z"/>
</mask>
<path d="M91.2192 2.08772C91.3247 1.16875 92.1557 0.507058 93.0717 0.636139C107.81 2.71314 121.409 9.79008 131.574 20.7084C142.12 32.0358 148.278 46.7545 148.94 62.217C149.603 77.6795 144.727 92.8711 135.188 105.059C125.995 116.807 113.051 125.021 98.5449 128.352C97.6433 128.559 96.7587 127.971 96.5751 127.064C96.3914 126.157 96.9782 125.276 97.8795 125.068C111.604 121.897 123.848 114.115 132.551 102.995C141.597 91.4348 146.222 77.0261 145.594 62.3604C144.965 47.6948 139.124 33.7346 129.122 22.9909C119.5 12.6564 106.636 5.95044 92.6897 3.9652C91.7739 3.83483 91.1138 3.00669 91.2192 2.08772Z" stroke="#55697B" stroke-width="8" stroke-linejoin="round" mask="url(#path-2-inside-1_4077_2864)"/>
<circle cx="98.5599" cy="126.88" r="3.12" fill="#55697B"/>
<path d="M68.4336 69.3789H47.8867V67.2695L60.6016 47.5625H63.5703L60.4062 53.2461L52.0078 66.4492H68.4336V69.3789ZM64.4883 76H60.8359V47.5625H64.4883V76ZM73.375 61.7227L74.8203 47.5625H89.4102V50.8633H77.9062L77.0664 58.6562C77.5742 58.3568 78.2253 58.0768 79.0195 57.8164C79.8268 57.556 80.7513 57.4258 81.793 57.4258C83.5378 57.4258 85.0417 57.8164 86.3047 58.5977C87.5677 59.3789 88.5378 60.4792 89.2148 61.8984C89.9049 63.3177 90.25 64.9974 90.25 66.9375C90.25 68.7474 89.918 70.3685 89.2539 71.8008C88.6029 73.2201 87.6133 74.3398 86.2852 75.1602C84.957 75.9805 83.2773 76.3906 81.2461 76.3906C80.1003 76.3906 79.013 76.2344 77.9844 75.9219C76.9688 75.5964 76.0573 75.1081 75.25 74.457C74.4557 73.793 73.8047 72.9727 73.2969 71.9961C72.7891 71.0065 72.4766 69.8477 72.3594 68.5195H75.8164C76.0378 70.1341 76.6172 71.3646 77.5547 72.2109C78.4922 73.0443 79.7227 73.4609 81.2461 73.4609C82.3789 73.4609 83.3424 73.2005 84.1367 72.6797C84.944 72.1458 85.556 71.3971 85.9727 70.4336C86.3893 69.457 86.5977 68.3047 86.5977 66.9766C86.5977 65.7786 86.3763 64.7044 85.9336 63.7539C85.5039 62.8034 84.8659 62.0482 84.0195 61.4883C83.1862 60.9284 82.1576 60.6484 80.9336 60.6484C79.7227 60.6484 78.8112 60.8112 78.1992 61.1367C77.5872 61.4492 76.9557 61.8919 76.3047 62.4648L73.375 61.7227ZM100.582 73.832L98.5312 72.543L112.418 50.3164L114.469 51.6055L100.582 73.832ZM113.609 76.4102C112.398 76.4102 111.35 76.1432 110.465 75.6094C109.592 75.0755 108.922 74.3659 108.453 73.4805C107.984 72.5951 107.75 71.6185 107.75 70.5508V69.0273C107.75 67.9596 107.984 66.9831 108.453 66.0977C108.922 65.2122 109.586 64.5026 110.445 63.9688C111.318 63.4349 112.359 63.168 113.57 63.168C114.794 63.168 115.836 63.4349 116.695 63.9688C117.568 64.5026 118.238 65.2122 118.707 66.0977C119.176 66.9831 119.41 67.9596 119.41 69.0273V70.5508C119.41 71.6185 119.176 72.5951 118.707 73.4805C118.251 74.3659 117.587 75.0755 116.715 75.6094C115.855 76.1432 114.82 76.4102 113.609 76.4102ZM113.609 74.0664C114.312 74.0664 114.892 73.9036 115.348 73.5781C115.803 73.2396 116.142 72.8034 116.363 72.2695C116.585 71.7357 116.695 71.1628 116.695 70.5508V69.0273C116.695 68.1029 116.435 67.2891 115.914 66.5859C115.406 65.8698 114.625 65.5117 113.57 65.5117C112.529 65.5117 111.747 65.8698 111.227 66.5859C110.719 67.2891 110.465 68.1029 110.465 69.0273V70.5508C110.465 71.1497 110.576 71.7227 110.797 72.2695C111.031 72.8034 111.383 73.2396 111.852 73.5781C112.32 73.9036 112.906 74.0664 113.609 74.0664ZM99.7617 60.375C98.5508 60.375 97.5026 60.1081 96.6172 59.5742C95.7448 59.0404 95.0742 58.3307 94.6055 57.4453C94.1367 56.5599 93.9023 55.5898 93.9023 54.5352V53.0312C93.9023 51.9505 94.1367 50.9674 94.6055 50.082C95.0742 49.1966 95.7448 48.487 96.6172 47.9531C97.4896 47.4193 98.5247 47.1523 99.7227 47.1523C100.947 47.1523 101.995 47.4193 102.867 47.9531C103.74 48.487 104.41 49.1966 104.879 50.082C105.348 50.9674 105.582 51.9505 105.582 53.0312V54.5352C105.582 55.5898 105.348 56.5599 104.879 57.4453C104.41 58.3307 103.74 59.0404 102.867 59.5742C102.008 60.1081 100.973 60.375 99.7617 60.375ZM99.7617 58.0312C100.465 58.0312 101.044 57.8685 101.5 57.543C101.956 57.2044 102.294 56.7682 102.516 56.2344C102.737 55.7005 102.848 55.1341 102.848 54.5352V53.0312C102.848 52.4193 102.73 51.8464 102.496 51.3125C102.275 50.7656 101.93 50.3294 101.461 50.0039C101.005 49.6654 100.426 49.4961 99.7227 49.4961C99.0326 49.4961 98.4596 49.6654 98.0039 50.0039C97.5482 50.3294 97.2031 50.7656 96.9688 51.3125C96.7474 51.8464 96.6367 52.4193 96.6367 53.0312V54.5352C96.6367 55.1341 96.7474 55.7005 96.9688 56.2344C97.2031 56.7682 97.5482 57.2044 98.0039 57.543C98.4727 57.8685 99.0586 58.0312 99.7617 58.0312Z" fill="#55697B"/>
</svg>
