<svg width="168" height="130" viewBox="0 0 168 130" fill="none" xmlns="http://www.w3.org/2000/svg">
<circle opacity="0.4" cx="84" cy="65" r="63" stroke="#55697B" stroke-width="4"/>
<mask id="path-2-inside-1_4077_2855" fill="white">
<path d="M91.2192 2.08772C91.3247 1.16875 92.1556 0.507036 93.0715 0.636129C101.811 1.86782 110.214 4.8673 117.765 9.45788C125.794 14.3387 132.669 20.9021 137.917 28.6958C143.165 36.4896 146.66 45.3285 148.163 54.6034C149.666 63.8783 149.14 73.3688 146.622 82.4209C144.104 91.473 139.653 99.8716 133.576 107.038C127.5 114.204 119.942 119.968 111.423 123.932C102.904 127.896 93.6271 129.966 84.2313 130C75.3941 130.031 66.6494 128.26 58.5297 124.802C57.6786 124.439 57.3088 123.444 57.6931 122.602C58.0774 121.761 59.0701 121.392 59.9217 121.754C67.6005 125.012 75.8664 126.68 84.2194 126.65C93.131 126.618 101.93 124.655 110.01 120.895C118.089 117.135 125.258 111.669 131.021 104.872C136.785 98.0745 141.006 90.1088 143.395 81.5231C145.783 72.9375 146.282 63.9361 144.857 55.1392C143.431 46.3422 140.116 37.9589 135.138 30.5668C130.161 23.1746 123.64 16.9495 116.025 12.3202C108.887 7.98116 100.948 5.14086 92.6895 3.96518C91.7737 3.8348 91.1138 3.00669 91.2192 2.08772Z"/>
</mask>
<path d="M91.2192 2.08772C91.3247 1.16875 92.1556 0.507036 93.0715 0.636129C101.811 1.86782 110.214 4.8673 117.765 9.45788C125.794 14.3387 132.669 20.9021 137.917 28.6958C143.165 36.4896 146.66 45.3285 148.163 54.6034C149.666 63.8783 149.14 73.3688 146.622 82.4209C144.104 91.473 139.653 99.8716 133.576 107.038C127.5 114.204 119.942 119.968 111.423 123.932C102.904 127.896 93.6271 129.966 84.2313 130C75.3941 130.031 66.6494 128.26 58.5297 124.802C57.6786 124.439 57.3088 123.444 57.6931 122.602C58.0774 121.761 59.0701 121.392 59.9217 121.754C67.6005 125.012 75.8664 126.68 84.2194 126.65C93.131 126.618 101.93 124.655 110.01 120.895C118.089 117.135 125.258 111.669 131.021 104.872C136.785 98.0745 141.006 90.1088 143.395 81.5231C145.783 72.9375 146.282 63.9361 144.857 55.1392C143.431 46.3422 140.116 37.9589 135.138 30.5668C130.161 23.1746 123.64 16.9495 116.025 12.3202C108.887 7.98116 100.948 5.14086 92.6895 3.96518C91.7737 3.8348 91.1138 3.00669 91.2192 2.08772Z" stroke="#55697B" stroke-width="8" stroke-linejoin="round" mask="url(#path-2-inside-1_4077_2855)"/>
<circle cx="58.5199" cy="122.72" r="3.12" fill="#55697B"/>
<path d="M53.7852 62.4648L50.8945 61.7227L52.3203 47.5625H66.9102V50.9023H55.3867L54.5273 58.6367C55.0482 58.3372 55.7057 58.0573 56.5 57.7969C57.3073 57.5365 58.2318 57.4062 59.2734 57.4062C60.5885 57.4062 61.7669 57.6341 62.8086 58.0898C63.8503 58.5326 64.7357 59.1706 65.4648 60.0039C66.207 60.8372 66.7734 61.8398 67.1641 63.0117C67.5547 64.1836 67.75 65.4922 67.75 66.9375C67.75 68.3047 67.5612 69.5612 67.1836 70.707C66.819 71.8529 66.2656 72.8555 65.5234 73.7148C64.7812 74.5612 63.8438 75.2188 62.7109 75.6875C61.5911 76.1562 60.2695 76.3906 58.7461 76.3906C57.6003 76.3906 56.513 76.2344 55.4844 75.9219C54.4688 75.5964 53.5573 75.1081 52.75 74.457C51.9557 73.793 51.3047 72.9727 50.7969 71.9961C50.3021 71.0065 49.9896 69.8477 49.8594 68.5195H53.2969C53.4531 69.5872 53.7656 70.4857 54.2344 71.2148C54.7031 71.944 55.3151 72.4974 56.0703 72.875C56.8385 73.2396 57.7305 73.4219 58.7461 73.4219C59.6055 73.4219 60.3672 73.2721 61.0312 72.9727C61.6953 72.6732 62.2552 72.2435 62.7109 71.6836C63.1667 71.1237 63.5117 70.4466 63.7461 69.6523C63.9935 68.8581 64.1172 67.9661 64.1172 66.9766C64.1172 66.0781 63.9935 65.2448 63.7461 64.4766C63.4987 63.7083 63.1276 63.0378 62.6328 62.4648C62.151 61.8919 61.5586 61.4492 60.8555 61.1367C60.1523 60.8112 59.3451 60.6484 58.4336 60.6484C57.2227 60.6484 56.3047 60.8112 55.6797 61.1367C55.0677 61.4622 54.4362 61.9049 53.7852 62.4648ZM76.2852 62.4648L73.3945 61.7227L74.8203 47.5625H89.4102V50.9023H77.8867L77.0273 58.6367C77.5482 58.3372 78.2057 58.0573 79 57.7969C79.8073 57.5365 80.7318 57.4062 81.7734 57.4062C83.0885 57.4062 84.2669 57.6341 85.3086 58.0898C86.3503 58.5326 87.2357 59.1706 87.9648 60.0039C88.707 60.8372 89.2734 61.8398 89.6641 63.0117C90.0547 64.1836 90.25 65.4922 90.25 66.9375C90.25 68.3047 90.0612 69.5612 89.6836 70.707C89.319 71.8529 88.7656 72.8555 88.0234 73.7148C87.2812 74.5612 86.3438 75.2188 85.2109 75.6875C84.0911 76.1562 82.7695 76.3906 81.2461 76.3906C80.1003 76.3906 79.013 76.2344 77.9844 75.9219C76.9688 75.5964 76.0573 75.1081 75.25 74.457C74.4557 73.793 73.8047 72.9727 73.2969 71.9961C72.8021 71.0065 72.4896 69.8477 72.3594 68.5195H75.7969C75.9531 69.5872 76.2656 70.4857 76.7344 71.2148C77.2031 71.944 77.8151 72.4974 78.5703 72.875C79.3385 73.2396 80.2305 73.4219 81.2461 73.4219C82.1055 73.4219 82.8672 73.2721 83.5312 72.9727C84.1953 72.6732 84.7552 72.2435 85.2109 71.6836C85.6667 71.1237 86.0117 70.4466 86.2461 69.6523C86.4935 68.8581 86.6172 67.9661 86.6172 66.9766C86.6172 66.0781 86.4935 65.2448 86.2461 64.4766C85.9987 63.7083 85.6276 63.0378 85.1328 62.4648C84.651 61.8919 84.0586 61.4492 83.3555 61.1367C82.6523 60.8112 81.8451 60.6484 80.9336 60.6484C79.7227 60.6484 78.8047 60.8112 78.1797 61.1367C77.5677 61.4622 76.9362 61.9049 76.2852 62.4648ZM93.9023 54.5352V53.0312C93.9023 51.9505 94.1367 50.9674 94.6055 50.082C95.0742 49.1966 95.7448 48.487 96.6172 47.9531C97.4896 47.4193 98.5247 47.1523 99.7227 47.1523C100.947 47.1523 101.988 47.4193 102.848 47.9531C103.72 48.487 104.391 49.1966 104.859 50.082C105.328 50.9674 105.562 51.9505 105.562 53.0312V54.5352C105.562 55.5898 105.328 56.5599 104.859 57.4453C104.404 58.3307 103.74 59.0404 102.867 59.5742C102.008 60.1081 100.973 60.375 99.7617 60.375C98.5508 60.375 97.5026 60.1081 96.6172 59.5742C95.7448 59.0404 95.0742 58.3307 94.6055 57.4453C94.1367 56.5599 93.9023 55.5898 93.9023 54.5352ZM96.6172 53.0312V54.5352C96.6172 55.1341 96.7279 55.7005 96.9492 56.2344C97.1836 56.7682 97.5352 57.2044 98.0039 57.543C98.4727 57.8685 99.0586 58.0312 99.7617 58.0312C100.465 58.0312 101.044 57.8685 101.5 57.543C101.956 57.2044 102.294 56.7682 102.516 56.2344C102.737 55.7005 102.848 55.1341 102.848 54.5352V53.0312C102.848 52.4193 102.73 51.8464 102.496 51.3125C102.275 50.7656 101.93 50.3294 101.461 50.0039C101.005 49.6654 100.426 49.4961 99.7227 49.4961C99.0326 49.4961 98.4531 49.6654 97.9844 50.0039C97.5286 50.3294 97.1836 50.7656 96.9492 51.3125C96.7279 51.8464 96.6172 52.4193 96.6172 53.0312ZM107.75 70.5508V69.0273C107.75 67.9596 107.984 66.9831 108.453 66.0977C108.922 65.2122 109.592 64.5026 110.465 63.9688C111.337 63.4349 112.372 63.168 113.57 63.168C114.794 63.168 115.836 63.4349 116.695 63.9688C117.568 64.5026 118.238 65.2122 118.707 66.0977C119.176 66.9831 119.41 67.9596 119.41 69.0273V70.5508C119.41 71.6185 119.176 72.5951 118.707 73.4805C118.251 74.3659 117.587 75.0755 116.715 75.6094C115.855 76.1432 114.82 76.4102 113.609 76.4102C112.398 76.4102 111.357 76.1432 110.484 75.6094C109.612 75.0755 108.935 74.3659 108.453 73.4805C107.984 72.5951 107.75 71.6185 107.75 70.5508ZM110.465 69.0273V70.5508C110.465 71.1497 110.576 71.7227 110.797 72.2695C111.031 72.8034 111.383 73.2396 111.852 73.5781C112.32 73.9036 112.906 74.0664 113.609 74.0664C114.312 74.0664 114.892 73.9036 115.348 73.5781C115.816 73.2396 116.161 72.8034 116.383 72.2695C116.604 71.7357 116.715 71.1628 116.715 70.5508V69.0273C116.715 68.4154 116.598 67.8424 116.363 67.3086C116.142 66.7747 115.797 66.3451 115.328 66.0195C114.872 65.681 114.286 65.5117 113.57 65.5117C112.88 65.5117 112.301 65.681 111.832 66.0195C111.376 66.3451 111.031 66.7747 110.797 67.3086C110.576 67.8424 110.465 68.4154 110.465 69.0273ZM114.469 51.6055L100.582 73.832L98.5508 72.543L112.438 50.3164L114.469 51.6055Z" fill="#55697B"/>
</svg>
