<svg width="168" height="130" viewBox="0 0 168 130" fill="none" xmlns="http://www.w3.org/2000/svg">
<circle opacity="0.4" cx="84" cy="65" r="63" stroke="#55697B" stroke-width="4"/>
<path d="M63.3945 47.5234V50.5703H63.082C61.168 50.5703 59.5664 50.8828 58.2773 51.5078C57.0013 52.1198 55.9792 52.9466 55.2109 53.9883C54.4557 55.0169 53.9154 56.1758 53.5898 57.4648C53.2643 58.7539 53.1016 60.069 53.1016 61.4102V65.5898C53.1016 67.2826 53.362 68.7148 53.8828 69.8867C54.4036 71.0456 55.0807 71.9245 55.9141 72.5234C56.7604 73.1224 57.6523 73.4219 58.5898 73.4219C59.7096 73.4219 60.6536 73.1419 61.4219 72.582C62.2031 72.0221 62.7956 71.2539 63.1992 70.2773C63.6159 69.2878 63.8242 68.1615 63.8242 66.8984C63.8242 65.7656 63.6354 64.6979 63.2578 63.6953C62.8932 62.6927 62.3268 61.8789 61.5586 61.2539C60.8034 60.6289 59.8398 60.3164 58.668 60.3164C57.6654 60.3164 56.7279 60.5638 55.8555 61.0586C54.9961 61.5404 54.293 62.1784 53.7461 62.9727C53.1992 63.7669 52.8867 64.6263 52.8086 65.5508L50.8945 65.5312C51.0768 64.0859 51.4154 62.849 51.9102 61.8203C52.418 60.7786 53.043 59.9323 53.7852 59.2812C54.5404 58.6172 55.3802 58.1289 56.3047 57.8164C57.2422 57.5039 58.2318 57.3477 59.2734 57.3477C61.1615 57.3477 62.7044 57.8034 63.9023 58.7148C65.1003 59.6263 65.9857 60.7982 66.5586 62.2305C67.1315 63.6628 67.418 65.1602 67.418 66.7227C67.418 68.5195 67.0794 70.1471 66.4023 71.6055C65.7383 73.0638 64.7487 74.2292 63.4336 75.1016C62.1315 75.9609 60.5169 76.3906 58.5898 76.3906C57.0534 76.3906 55.7122 76.0781 54.5664 75.4531C53.4206 74.8151 52.4701 73.9753 51.7148 72.9336C50.9596 71.8789 50.3932 70.707 50.0156 69.418C49.638 68.1289 49.4492 66.8203 49.4492 65.4922V63.7734C49.4492 61.7552 49.6445 59.7826 50.0352 57.8555C50.4388 55.9284 51.1354 54.1901 52.125 52.6406C53.1276 51.0781 54.5143 49.8346 56.2852 48.9102C58.069 47.9857 60.3346 47.5234 63.082 47.5234H63.3945ZM89.5664 63.8711C89.5664 66.957 89.2018 69.418 88.4727 71.2539C87.7565 73.0768 86.7279 74.3919 85.3867 75.1992C84.0456 75.9935 82.457 76.3906 80.6211 76.3906C78.8112 76.3906 77.2292 75.9935 75.875 75.1992C74.5208 74.3919 73.4661 73.0768 72.7109 71.2539C71.9688 69.418 71.5977 66.957 71.5977 63.8711V59.5156C71.5977 56.4167 71.9622 53.9688 72.6914 52.1719C73.4336 50.375 74.4753 49.0924 75.8164 48.3242C77.1706 47.556 78.7591 47.1719 80.582 47.1719C82.418 47.1719 84.0065 47.556 85.3477 48.3242C86.6888 49.0924 87.724 50.375 88.4531 52.1719C89.1953 53.9688 89.5664 56.4167 89.5664 59.5156V63.8711ZM85.9141 58.9102C85.9141 56.7747 85.7122 55.0625 85.3086 53.7734C84.9049 52.4844 84.306 51.5534 83.5117 50.9805C82.7174 50.3945 81.7409 50.1016 80.582 50.1016C79.4362 50.1016 78.4661 50.3945 77.6719 50.9805C76.8776 51.5534 76.2721 52.4844 75.8555 53.7734C75.4518 55.0625 75.25 56.7747 75.25 58.9102V64.4375C75.25 66.5599 75.4583 68.2852 75.875 69.6133C76.2917 70.9414 76.8971 71.918 77.6914 72.543C78.4987 73.1549 79.4753 73.4609 80.6211 73.4609C81.793 73.4609 82.7695 73.1549 83.5508 72.543C84.332 71.918 84.918 70.9414 85.3086 69.6133C85.7122 68.2852 85.9141 66.5599 85.9141 64.4375V58.9102ZM100.582 73.832L98.5312 72.543L112.418 50.3164L114.469 51.6055L100.582 73.832ZM113.609 76.4102C112.398 76.4102 111.35 76.1432 110.465 75.6094C109.592 75.0755 108.922 74.3659 108.453 73.4805C107.984 72.5951 107.75 71.6185 107.75 70.5508V69.0273C107.75 67.9596 107.984 66.9831 108.453 66.0977C108.922 65.2122 109.586 64.5026 110.445 63.9688C111.318 63.4349 112.359 63.168 113.57 63.168C114.794 63.168 115.836 63.4349 116.695 63.9688C117.568 64.5026 118.238 65.2122 118.707 66.0977C119.176 66.9831 119.41 67.9596 119.41 69.0273V70.5508C119.41 71.6185 119.176 72.5951 118.707 73.4805C118.251 74.3659 117.587 75.0755 116.715 75.6094C115.855 76.1432 114.82 76.4102 113.609 76.4102ZM113.609 74.0664C114.312 74.0664 114.892 73.9036 115.348 73.5781C115.803 73.2396 116.142 72.8034 116.363 72.2695C116.585 71.7357 116.695 71.1628 116.695 70.5508V69.0273C116.695 68.1029 116.435 67.2891 115.914 66.5859C115.406 65.8698 114.625 65.5117 113.57 65.5117C112.529 65.5117 111.747 65.8698 111.227 66.5859C110.719 67.2891 110.465 68.1029 110.465 69.0273V70.5508C110.465 71.1497 110.576 71.7227 110.797 72.2695C111.031 72.8034 111.383 73.2396 111.852 73.5781C112.32 73.9036 112.906 74.0664 113.609 74.0664ZM99.7617 60.375C98.5508 60.375 97.5026 60.1081 96.6172 59.5742C95.7448 59.0404 95.0742 58.3307 94.6055 57.4453C94.1367 56.5599 93.9023 55.5898 93.9023 54.5352V53.0312C93.9023 51.9505 94.1367 50.9674 94.6055 50.082C95.0742 49.1966 95.7448 48.487 96.6172 47.9531C97.4896 47.4193 98.5247 47.1523 99.7227 47.1523C100.947 47.1523 101.995 47.4193 102.867 47.9531C103.74 48.487 104.41 49.1966 104.879 50.082C105.348 50.9674 105.582 51.9505 105.582 53.0312V54.5352C105.582 55.5898 105.348 56.5599 104.879 57.4453C104.41 58.3307 103.74 59.0404 102.867 59.5742C102.008 60.1081 100.973 60.375 99.7617 60.375ZM99.7617 58.0312C100.465 58.0312 101.044 57.8685 101.5 57.543C101.956 57.2044 102.294 56.7682 102.516 56.2344C102.737 55.7005 102.848 55.1341 102.848 54.5352V53.0312C102.848 52.4193 102.73 51.8464 102.496 51.3125C102.275 50.7656 101.93 50.3294 101.461 50.0039C101.005 49.6654 100.426 49.4961 99.7227 49.4961C99.0326 49.4961 98.4596 49.6654 98.0039 50.0039C97.5482 50.3294 97.2031 50.7656 96.9688 51.3125C96.7474 51.8464 96.6367 52.4193 96.6367 53.0312V54.5352C96.6367 55.1341 96.7474 55.7005 96.9688 56.2344C97.2031 56.7682 97.5482 57.2044 98.0039 57.543C98.4727 57.8685 99.0586 58.0312 99.7617 58.0312Z" fill="#55697B"/>
<mask id="path-3-inside-1_54785_8743" fill="white">
<path d="M91.2192 2.08772C91.3247 1.16875 92.1556 0.507042 93.0716 0.636135C102.662 1.98775 111.836 5.4666 119.92 10.8263C128.469 16.4948 135.555 24.1061 140.599 33.038C145.643 41.9699 148.501 51.9687 148.94 62.217C149.38 72.4653 147.387 82.672 143.126 92.0027C138.864 101.333 132.455 109.523 124.422 115.902C116.39 122.281 106.961 126.669 96.9076 128.706C86.8542 130.742 76.4615 130.371 66.5791 127.622C57.235 125.023 48.598 120.367 41.2965 114.004C40.5991 113.396 40.5551 112.335 41.1806 111.654C41.806 110.972 42.8641 110.929 43.5623 111.535C50.4737 117.541 58.642 121.937 67.4768 124.395C76.85 127.002 86.7071 127.354 96.2424 125.423C105.778 123.491 114.72 119.329 122.339 113.279C129.958 107.229 136.037 99.4609 140.079 90.6111C144.12 81.7613 146.01 72.0806 145.594 62.3604C145.177 52.6403 142.466 43.1567 137.682 34.6852C132.898 26.2136 126.177 18.9945 118.068 13.6181C110.426 8.55053 101.754 5.25572 92.6895 3.96518C91.7737 3.83481 91.1138 3.00669 91.2192 2.08772Z"/>
</mask>
<path d="M91.2192 2.08772C91.3247 1.16875 92.1556 0.507042 93.0716 0.636135C102.662 1.98775 111.836 5.4666 119.92 10.8263C128.469 16.4948 135.555 24.1061 140.599 33.038C145.643 41.9699 148.501 51.9687 148.94 62.217C149.38 72.4653 147.387 82.672 143.126 92.0027C138.864 101.333 132.455 109.523 124.422 115.902C116.39 122.281 106.961 126.669 96.9076 128.706C86.8542 130.742 76.4615 130.371 66.5791 127.622C57.235 125.023 48.598 120.367 41.2965 114.004C40.5991 113.396 40.5551 112.335 41.1806 111.654C41.806 110.972 42.8641 110.929 43.5623 111.535C50.4737 117.541 58.642 121.937 67.4768 124.395C76.85 127.002 86.7071 127.354 96.2424 125.423C105.778 123.491 114.72 119.329 122.339 113.279C129.958 107.229 136.037 99.4609 140.079 90.6111C144.12 81.7613 146.01 72.0806 145.594 62.3604C145.177 52.6403 142.466 43.1567 137.682 34.6852C132.898 26.2136 126.177 18.9945 118.068 13.6181C110.426 8.55053 101.754 5.25572 92.6895 3.96518C91.7737 3.83481 91.1138 3.00669 91.2192 2.08772Z" fill="#55697B" stroke="#55697B" stroke-width="8" stroke-linejoin="round" mask="url(#path-3-inside-1_54785_8743)"/>
</svg>
