<svg width="228" height="38" viewBox="0 0 228 38" fill="none" xmlns="http://www.w3.org/2000/svg">
<g clip-path="url(#clip0_4574_7950)">
<path d="M60.4617 18.8627C61.8324 18.4287 62.7508 17.519 62.7508 15.8175C62.7508 14.8086 62.4378 12.2389 57.6061 12.2389H45.7175V25.7613H57.8779C61.5765 25.7613 63.1003 24.2376 63.1003 22.1043C63.1003 20.562 62.2984 19.3961 60.4594 18.8627H60.4617ZM48.4201 14.7301H57.9784C59.4063 14.7301 60.0322 15.3442 60.0322 16.2123C60.0322 17.1427 59.308 17.6368 57.782 17.6368H48.4178V14.7301H48.4201ZM58.1726 23.2309H48.4178V20.0471H57.9762C59.8152 20.0471 60.3429 20.9753 60.3429 21.7279C60.3429 22.4806 59.8152 23.2309 58.1703 23.2309H58.1726Z" fill="white"/>
<path d="M81.3215 16.4501C81.3215 13.7419 79.2883 12.2389 76.0009 12.2389H64.3796V25.7613H67.1782V21.3123H75.9415C77.7211 21.3123 78.1323 22.282 78.1323 23.0324V25.7613H81.0268V23.0924C81.0268 21.6887 80.2843 20.5828 78.5824 20.0287C80.3232 19.5138 81.3215 18.3479 81.3215 16.4501ZM76.2179 18.8027H67.1782V14.7301H76.2179C77.9382 14.7301 78.4682 15.8775 78.4682 16.7664C78.4682 17.6553 77.9404 18.8027 76.2179 18.8027Z" fill="white"/>
<path d="M86.5644 22.4205H96.4243L98.1262 25.7613H101.139L95.6407 14.9078C94.7794 13.227 93.7834 12.0403 91.4943 12.0403C89.2053 12.0403 88.1886 13.227 87.3457 14.9078L81.8674 25.7613H84.8601L86.5621 22.4205H86.5644ZM90.1053 15.4803C90.3978 14.9078 90.7701 14.5522 91.4943 14.5522C92.2185 14.5522 92.5886 14.9078 92.8833 15.4803L95.1335 19.9086H87.8368L90.1076 15.4803H90.1053Z" fill="white"/>
<path d="M105.012 12.2389H102.213V25.7613H105.012V12.2389Z" fill="white"/>
<path d="M124.985 12.2389H122.187V22.8962H122.166C120.718 22.8962 120.485 22.5799 117.295 18.1309C113.912 13.4048 112.934 12.2389 109.334 12.2389H107.358V25.7613H110.156V15.1041H110.177C111.527 15.1041 111.625 15.3211 115.048 19.8486C118.705 24.6924 119.703 25.7613 123.009 25.7613H124.985V12.2389Z" fill="white"/>
<path d="M135.569 25.9598C137.858 25.9598 138.934 24.7731 139.757 23.0946L145.077 12.2411H142.007L136.96 22.365C136.668 22.9376 136.296 23.2747 135.571 23.2747C134.847 23.2747 134.475 22.9399 134.182 22.365L129.136 12.2411H126.066L131.386 23.0946C132.209 24.7754 133.285 25.9598 135.574 25.9598H135.569Z" fill="white"/>
<path d="M150.444 14.9286H159.723V12.2389H150.444C145.651 12.2389 143.988 14.5523 143.988 19.0013C143.988 23.4503 145.651 25.7636 150.444 25.7636H159.723V23.0555H150.444C147.823 23.0555 147.04 22.0673 146.843 20.2688H159.488V17.7384H146.843C147.037 15.9398 147.821 14.9309 150.444 14.9309V14.9286Z" fill="white"/>
<path d="M167.185 25.7613H176.729V22.9931H167.185C163.977 22.9931 163.584 21.5894 163.584 18.999C163.584 16.4085 163.975 14.9863 167.185 14.9863H176.729V12.2389H167.185C162.371 12.2389 160.729 14.5523 160.729 19.0013C160.729 23.4503 162.371 25.7636 167.185 25.7636V25.7613Z" fill="white"/>
<path d="M183.375 25.7613H186.173V14.9171H192.19V12.2389H177.357V14.9171H183.375V25.7613Z" fill="white"/>
<path d="M201.648 12.0403C195.27 12.0403 192.257 13.7603 192.257 19.0012C192.257 24.2421 195.27 25.9598 201.648 25.9598C208.027 25.9598 211.038 24.2398 211.038 19.0012C211.038 13.7626 208.024 12.0403 201.648 12.0403ZM201.648 23.2909C197.267 23.2909 195.115 22.7761 195.115 19.0012C195.115 15.2264 197.267 14.7092 201.648 14.7092C206.03 14.7092 208.182 15.2241 208.182 19.0012C208.182 22.7784 206.03 23.2909 201.648 23.2909Z" fill="white"/>
<path d="M225.263 20.0287C227.004 19.5138 228.002 18.3479 228.002 16.4501C228.002 13.7419 225.969 12.2389 222.682 12.2389H211.693V25.7613H214.492V21.3123H222.622C224.402 21.3123 224.813 22.282 224.813 23.0324V25.7613H227.708V23.0924C227.708 21.6887 226.965 20.5828 225.263 20.0287ZM222.894 18.8027H214.487V14.7301H222.894C224.614 14.7301 225.144 15.8775 225.144 16.7664C225.144 17.6553 224.617 18.8027 222.894 18.8027Z" fill="white"/>
<path d="M13.9834 15.3117C15.875 15.3117 17.4147 13.7556 17.4147 11.8439V10.0431H10.5498V11.8439C10.5498 13.7556 12.0896 15.3117 13.9811 15.3117H13.9834Z" fill="white"/>
<path d="M23.5783 15.3117C25.4699 15.3117 27.0096 13.7556 27.0096 11.8439V10.0431H20.147V11.8439C20.147 13.7556 21.6867 15.3117 23.5783 15.3117Z" fill="white"/>
<path d="M25.8057 0H11.7926C5.27948 0 0 5.33556 0 11.9179V26.0798C0 32.6621 5.27948 37.9977 11.7926 37.9977H25.8057C32.3188 37.9977 37.5983 32.6621 37.5983 26.0798V11.9179C37.5983 5.33556 32.3188 0 25.8057 0ZM7.82213 7.28416H29.7396V11.844C29.7396 15.2771 26.9754 18.0707 23.5783 18.0707C21.6411 18.0707 19.9117 17.1634 18.7809 15.7458C17.6501 17.1634 15.9207 18.0707 13.9834 18.0707C10.5864 18.0707 7.82213 15.2771 7.82213 11.844V7.28416ZM23.0986 30.6027C22.0272 32.1404 20.492 33.0223 18.886 33.0223C17.28 33.0223 15.7448 32.1404 14.6733 30.6027L7.99347 21.9241H11.6235L16.9122 29.0097C17.4719 29.8131 18.1732 30.2541 18.886 30.2541C19.5987 30.2541 20.3001 29.8131 20.8598 29.0097L26.1484 21.9241H29.7785L23.0986 30.6027Z" fill="white"/>
</g>
<defs>
<clipPath id="clip0_4574_7950">
<rect width="228" height="38" fill="white"/>
</clipPath>
</defs>
</svg>
