<svg width="275" height="46" viewBox="0 0 275 46" fill="none" xmlns="http://www.w3.org/2000/svg">
<g clip-path="url(#clip0_2126_3212)">
<path d="M72.9251 22.8338C74.5784 22.3084 75.6861 21.2072 75.6861 19.1474C75.6861 17.9261 75.3086 14.8154 69.4809 14.8154H55.1416V31.1847H69.8087C74.2698 31.1847 76.1077 29.3401 76.1077 26.7577C76.1077 24.8908 75.1405 23.4794 72.9224 22.8338H72.9251ZM58.4013 17.831H69.93C71.6521 17.831 72.4071 18.5745 72.4071 19.6253C72.4071 20.7516 71.5336 21.3497 69.693 21.3497H58.3985V17.831H58.4013ZM70.1642 28.1216H58.3985V24.2675H69.9272C72.1453 24.2675 72.7819 25.391 72.7819 26.3022C72.7819 27.2133 72.1453 28.1216 70.1614 28.1216H70.1642Z" fill="white"/>
<path d="M98.0849 19.9132C98.0849 16.6349 95.6326 14.8154 91.6675 14.8154H77.6506V31.1847H81.026V25.7991H91.5959C93.7423 25.7991 94.2383 26.9729 94.2383 27.8812V31.1847H97.7294V27.9539C97.7294 26.2546 96.8339 24.9159 94.7811 24.2452C96.8808 23.6219 98.0849 22.2105 98.0849 19.9132ZM91.9293 22.7611H81.026V17.831H91.9293C94.0041 17.831 94.6434 19.2201 94.6434 20.2961C94.6434 21.3721 94.0069 22.7611 91.9293 22.7611Z" fill="white"/>
<path d="M104.409 27.1407H116.301L118.354 31.1848H121.988L115.356 18.0464C114.317 16.0117 113.116 14.5752 110.355 14.5752C107.594 14.5752 106.368 16.0117 105.351 18.0464L98.7434 31.1848H102.353L104.406 27.1407H104.409ZM108.679 18.7395C109.032 18.0464 109.481 17.616 110.355 17.616C111.228 17.616 111.675 18.0464 112.03 18.7395L114.744 24.1H105.943L108.682 18.7395H108.679Z" fill="white"/>
<path d="M126.659 14.8154H123.283V31.1847H126.659V14.8154Z" fill="white"/>
<path d="M150.749 14.8154H147.374V27.7163H147.349C145.602 27.7163 145.321 27.3334 141.475 21.9478C137.394 16.2268 136.215 14.8154 131.872 14.8154H129.489V31.1847H132.864V18.2838H132.889C134.517 18.2838 134.636 18.5465 138.763 24.0272C143.175 29.8907 144.379 31.1847 148.366 31.1847H150.749V14.8154Z" fill="white"/>
<path d="M163.515 31.4252C166.276 31.4252 167.574 29.9887 168.566 27.9568L174.983 14.8184H171.28L165.193 27.0737C164.841 27.7668 164.392 28.1748 163.518 28.1748C162.645 28.1748 162.195 27.7696 161.843 27.0737L155.756 14.8184H152.053L158.47 27.9568C159.462 29.9915 160.76 31.4252 163.521 31.4252H163.515Z" fill="white"/>
<path d="M181.456 18.0714H192.649V14.8154H181.456C175.675 14.8154 173.669 17.6158 173.669 23.0015C173.669 28.3871 175.675 31.1875 181.456 31.1875H192.649V27.9092H181.456C178.296 27.9092 177.35 26.713 177.113 24.5358H192.365V21.4727H177.113C177.348 19.2955 178.293 18.0742 181.456 18.0742V18.0714Z" fill="white"/>
<path d="M201.648 31.1847H213.16V27.8337H201.648C197.779 27.8337 197.305 26.1345 197.305 22.9987C197.305 19.8629 197.776 18.1413 201.648 18.1413H213.16V14.8154H201.648C195.842 14.8154 193.861 17.6158 193.861 23.0015C193.861 28.3871 195.842 31.1875 201.648 31.1875V31.1847Z" fill="white"/>
<path d="M221.176 31.1847H224.551V18.0574H231.809V14.8154H213.918V18.0574H221.176V31.1847Z" fill="white"/>
<path d="M243.216 14.5752C235.523 14.5752 231.888 16.6573 231.888 23.0016C231.888 29.3458 235.523 31.4252 243.216 31.4252C250.909 31.4252 254.541 29.343 254.541 23.0016C254.541 16.6601 250.906 14.5752 243.216 14.5752ZM243.216 28.1944C237.931 28.1944 235.335 27.5711 235.335 23.0016C235.335 18.4321 237.931 17.806 243.216 17.806C248.501 17.806 251.097 18.4293 251.097 23.0016C251.097 27.5739 248.501 28.1944 243.216 28.1944Z" fill="white"/>
<path d="M271.699 24.2452C273.799 23.6219 275.003 22.2105 275.003 19.9132C275.003 16.6349 272.55 14.8154 268.585 14.8154H255.332V31.1847H258.707V25.7991H268.514C270.66 25.7991 271.156 26.9729 271.156 27.8812V31.1847H274.647V27.9539C274.647 26.2546 273.752 24.9159 271.699 24.2452ZM268.842 22.7611H258.702V17.831H268.842C270.916 17.831 271.556 19.2201 271.556 20.2961C271.556 21.3721 270.919 22.7611 268.842 22.7611Z" fill="white"/>
<path d="M16.866 18.5355C19.1475 18.5355 21.0047 16.6518 21.0047 14.3377V12.1577H12.7246V14.3377C12.7246 16.6518 14.5818 18.5355 16.8633 18.5355H16.866Z" fill="white"/>
<path d="M28.4387 18.5355C30.7202 18.5355 32.5774 16.6518 32.5774 14.3377V12.1577H24.3V14.3377C24.3 16.6518 26.1572 18.5355 28.4387 18.5355Z" fill="white"/>
<path d="M31.1253 0H14.2235C6.36779 0 0 6.45884 0 14.4269V31.5703C0 39.5384 6.36779 45.9972 14.2235 45.9972H31.1253C38.981 45.9972 45.3488 39.5384 45.3488 31.5703V14.4269C45.3488 6.45884 38.981 0 31.1253 0ZM9.43459 8.81767H35.8702V14.3374C35.8702 18.4933 32.5361 21.8751 28.4388 21.8751C26.1022 21.8751 24.0163 20.7767 22.6524 19.0607C21.2884 20.7767 19.2026 21.8751 16.866 21.8751C12.7687 21.8751 9.43459 18.4933 9.43459 14.3374V8.81767ZM27.8601 37.0454C26.5678 38.9067 24.7162 39.9744 22.7791 39.9744C20.8421 39.9744 18.9904 38.9067 17.6981 37.0454L9.64124 26.5396H14.0196L20.3984 35.117C21.0735 36.0896 21.9194 36.6234 22.7791 36.6234C23.6388 36.6234 24.4847 36.0896 25.1598 35.117L31.5386 26.5396H35.917L27.8601 37.0454Z" fill="white"/>
</g>
<defs>
<clipPath id="clip0_2126_3212">
<rect width="275" height="46" fill="white"/>
</clipPath>
</defs>
</svg>
