<svg width="168" height="130" viewBox="0 0 168 130" fill="none" xmlns="http://www.w3.org/2000/svg">
<circle opacity="0.4" cx="84" cy="65" r="63" stroke="#55697B" stroke-width="4"/>
<path d="M67.1445 68.3047C67.1445 70.0365 66.7409 71.5078 65.9336 72.7188C65.1393 73.9167 64.0586 74.8281 62.6914 75.4531C61.3372 76.0781 59.8073 76.3906 58.1016 76.3906C56.3958 76.3906 54.8594 76.0781 53.4922 75.4531C52.125 74.8281 51.0443 73.9167 50.25 72.7188C49.4557 71.5078 49.0586 70.0365 49.0586 68.3047C49.0586 67.1719 49.2734 66.1367 49.7031 65.1992C50.1458 64.2487 50.7643 63.4219 51.5586 62.7188C52.3659 62.0156 53.3164 61.4753 54.4102 61.0977C55.5169 60.707 56.7344 60.5117 58.0625 60.5117C59.8073 60.5117 61.3633 60.8503 62.7305 61.5273C64.0977 62.1914 65.1719 63.1094 65.9531 64.2812C66.7474 65.4531 67.1445 66.7943 67.1445 68.3047ZM63.5117 68.2266C63.5117 67.1719 63.2839 66.2409 62.8281 65.4336C62.3724 64.6133 61.7344 63.9753 60.9141 63.5195C60.0938 63.0638 59.1432 62.8359 58.0625 62.8359C56.9557 62.8359 55.9987 63.0638 55.1914 63.5195C54.3971 63.9753 53.7786 64.6133 53.3359 65.4336C52.8932 66.2409 52.6719 67.1719 52.6719 68.2266C52.6719 69.3203 52.8867 70.2578 53.3164 71.0391C53.7591 71.8073 54.3841 72.3997 55.1914 72.8164C56.0117 73.2201 56.9818 73.4219 58.1016 73.4219C59.2214 73.4219 60.1849 73.2201 60.9922 72.8164C61.7995 72.3997 62.418 71.8073 62.8477 71.0391C63.2904 70.2578 63.5117 69.3203 63.5117 68.2266ZM66.4805 54.9648C66.4805 56.3451 66.1159 57.5885 65.3867 58.6953C64.6576 59.8021 63.6615 60.6745 62.3984 61.3125C61.1354 61.9505 59.7031 62.2695 58.1016 62.2695C56.474 62.2695 55.0221 61.9505 53.7461 61.3125C52.4831 60.6745 51.4935 59.8021 50.7773 58.6953C50.0612 57.5885 49.7031 56.3451 49.7031 54.9648C49.7031 53.3112 50.0612 51.9049 50.7773 50.7461C51.5065 49.5872 52.5026 48.7018 53.7656 48.0898C55.0286 47.4779 56.4674 47.1719 58.082 47.1719C59.7096 47.1719 61.1549 47.4779 62.418 48.0898C63.681 48.7018 64.6706 49.5872 65.3867 50.7461C66.1159 51.9049 66.4805 53.3112 66.4805 54.9648ZM62.8672 55.0234C62.8672 54.0729 62.6654 53.2331 62.2617 52.5039C61.8581 51.7747 61.2982 51.2018 60.582 50.7852C59.8659 50.3555 59.0326 50.1406 58.082 50.1406C57.1315 50.1406 56.2982 50.3424 55.582 50.7461C54.8789 51.1367 54.3255 51.6966 53.9219 52.4258C53.5312 53.1549 53.3359 54.0208 53.3359 55.0234C53.3359 56 53.5312 56.8529 53.9219 57.582C54.3255 58.3112 54.8854 58.8776 55.6016 59.2812C56.3177 59.6849 57.151 59.8867 58.1016 59.8867C59.0521 59.8867 59.8789 59.6849 60.582 59.2812C61.2982 58.8776 61.8581 58.3112 62.2617 57.582C62.6654 56.8529 62.8672 56 62.8672 55.0234ZM90.9336 66.4297V69.3984H70.3867V67.2695L83.1211 47.5625H86.0703L82.9062 53.2656L74.4883 66.4297H90.9336ZM86.9688 47.5625V76H83.3555V47.5625H86.9688ZM93.9023 54.5352V53.0312C93.9023 51.9505 94.1367 50.9674 94.6055 50.082C95.0742 49.1966 95.7448 48.487 96.6172 47.9531C97.4896 47.4193 98.5247 47.1523 99.7227 47.1523C100.947 47.1523 101.988 47.4193 102.848 47.9531C103.72 48.487 104.391 49.1966 104.859 50.082C105.328 50.9674 105.562 51.9505 105.562 53.0312V54.5352C105.562 55.5898 105.328 56.5599 104.859 57.4453C104.404 58.3307 103.74 59.0404 102.867 59.5742C102.008 60.1081 100.973 60.375 99.7617 60.375C98.5508 60.375 97.5026 60.1081 96.6172 59.5742C95.7448 59.0404 95.0742 58.3307 94.6055 57.4453C94.1367 56.5599 93.9023 55.5898 93.9023 54.5352ZM96.6172 53.0312V54.5352C96.6172 55.1341 96.7279 55.7005 96.9492 56.2344C97.1836 56.7682 97.5352 57.2044 98.0039 57.543C98.4727 57.8685 99.0586 58.0312 99.7617 58.0312C100.465 58.0312 101.044 57.8685 101.5 57.543C101.956 57.2044 102.294 56.7682 102.516 56.2344C102.737 55.7005 102.848 55.1341 102.848 54.5352V53.0312C102.848 52.4193 102.73 51.8464 102.496 51.3125C102.275 50.7656 101.93 50.3294 101.461 50.0039C101.005 49.6654 100.426 49.4961 99.7227 49.4961C99.0326 49.4961 98.4531 49.6654 97.9844 50.0039C97.5286 50.3294 97.1836 50.7656 96.9492 51.3125C96.7279 51.8464 96.6172 52.4193 96.6172 53.0312ZM107.75 70.5508V69.0273C107.75 67.9596 107.984 66.9831 108.453 66.0977C108.922 65.2122 109.592 64.5026 110.465 63.9688C111.337 63.4349 112.372 63.168 113.57 63.168C114.794 63.168 115.836 63.4349 116.695 63.9688C117.568 64.5026 118.238 65.2122 118.707 66.0977C119.176 66.9831 119.41 67.9596 119.41 69.0273V70.5508C119.41 71.6185 119.176 72.5951 118.707 73.4805C118.251 74.3659 117.587 75.0755 116.715 75.6094C115.855 76.1432 114.82 76.4102 113.609 76.4102C112.398 76.4102 111.357 76.1432 110.484 75.6094C109.612 75.0755 108.935 74.3659 108.453 73.4805C107.984 72.5951 107.75 71.6185 107.75 70.5508ZM110.465 69.0273V70.5508C110.465 71.1497 110.576 71.7227 110.797 72.2695C111.031 72.8034 111.383 73.2396 111.852 73.5781C112.32 73.9036 112.906 74.0664 113.609 74.0664C114.312 74.0664 114.892 73.9036 115.348 73.5781C115.816 73.2396 116.161 72.8034 116.383 72.2695C116.604 71.7357 116.715 71.1628 116.715 70.5508V69.0273C116.715 68.4154 116.598 67.8424 116.363 67.3086C116.142 66.7747 115.797 66.3451 115.328 66.0195C114.872 65.681 114.286 65.5117 113.57 65.5117C112.88 65.5117 112.301 65.681 111.832 66.0195C111.376 66.3451 111.031 66.7747 110.797 67.3086C110.576 67.8424 110.465 68.4154 110.465 69.0273ZM114.469 51.6055L100.582 73.832L98.5508 72.543L112.438 50.3164L114.469 51.6055Z" fill="#55697B"/>
<g opacity="0.85">
<mask id="path-3-inside-1_4420_9182" fill="white">
<path d="M91.2192 2.08772C91.3247 1.16875 92.1558 0.50706 93.0717 0.636145C106.946 2.59145 119.834 8.98151 129.798 18.8748C140.159 29.1619 146.754 42.6376 148.522 57.1304C150.29 71.6232 147.126 86.2891 139.542 98.765C131.958 111.241 120.394 120.8 106.715 125.902C93.0348 131.004 78.0356 131.352 64.134 126.89C50.2324 122.427 38.2379 113.415 30.0833 101.304C21.9287 89.1935 18.0889 74.69 19.1826 60.1308C20.2345 46.129 25.7904 32.8599 34.9956 22.2967C35.6034 21.5993 36.6647 21.5552 37.3462 22.1806C38.0277 22.8061 38.0711 23.8643 37.4644 24.5625C28.7674 34.5707 23.5184 47.1303 22.5229 60.3818C21.4856 74.1907 25.1275 87.9467 32.8619 99.4333C40.5963 110.92 51.9726 119.468 65.1578 123.7C78.343 127.933 92.5692 127.603 105.544 122.763C118.519 117.924 129.486 108.858 136.68 97.0249C143.873 85.192 146.873 71.2819 145.197 57.536C143.52 43.79 137.265 31.0088 127.438 21.2518C118.008 11.8887 105.816 5.8339 92.6897 3.9652C91.7739 3.83483 91.1138 3.00669 91.2192 2.08772Z"/>
</mask>
<path d="M91.2192 2.08772C91.3247 1.16875 92.1558 0.50706 93.0717 0.636145C106.946 2.59145 119.834 8.98151 129.798 18.8748C140.159 29.1619 146.754 42.6376 148.522 57.1304C150.29 71.6232 147.126 86.2891 139.542 98.765C131.958 111.241 120.394 120.8 106.715 125.902C93.0348 131.004 78.0356 131.352 64.134 126.89C50.2324 122.427 38.2379 113.415 30.0833 101.304C21.9287 89.1935 18.0889 74.69 19.1826 60.1308C20.2345 46.129 25.7904 32.8599 34.9956 22.2967C35.6034 21.5993 36.6647 21.5552 37.3462 22.1806C38.0277 22.8061 38.0711 23.8643 37.4644 24.5625C28.7674 34.5707 23.5184 47.1303 22.5229 60.3818C21.4856 74.1907 25.1275 87.9467 32.8619 99.4333C40.5963 110.92 51.9726 119.468 65.1578 123.7C78.343 127.933 92.5692 127.603 105.544 122.763C118.519 117.924 129.486 108.858 136.68 97.0249C143.873 85.192 146.873 71.2819 145.197 57.536C143.52 43.79 137.265 31.0088 127.438 21.2518C118.008 11.8887 105.816 5.8339 92.6897 3.9652C91.7739 3.83483 91.1138 3.00669 91.2192 2.08772Z" stroke="#55697B" stroke-width="8" stroke-linejoin="round" mask="url(#path-3-inside-1_4420_9182)"/>
<ellipse cx="36.16" cy="23.92" rx="3.12" ry="3.12" fill="#55697B"/>
</g>
</svg>
