<svg width="168" height="131" viewBox="0 0 168 131" fill="none" xmlns="http://www.w3.org/2000/svg">
<circle opacity="0.4" cx="84" cy="65" r="63" stroke="#55697B" stroke-width="4"/>
<path d="M68.4336 66.4297V69.3984H47.8867V67.2695L60.6211 47.5625H63.5703L60.4062 53.2656L51.9883 66.4297H68.4336ZM64.4688 47.5625V76H60.8555V47.5625H64.4688ZM89.5664 59.5156V63.8516C89.5664 66.1823 89.3581 68.1484 88.9414 69.75C88.5247 71.3516 87.9258 72.6406 87.1445 73.6172C86.3633 74.5938 85.4193 75.3034 84.3125 75.7461C83.2188 76.1758 81.9818 76.3906 80.6016 76.3906C79.5078 76.3906 78.4987 76.2539 77.5742 75.9805C76.6497 75.707 75.8164 75.2708 75.0742 74.6719C74.3451 74.0599 73.7201 73.2656 73.1992 72.2891C72.6784 71.3125 72.2812 70.1276 72.0078 68.7344C71.7344 67.3411 71.5977 65.7135 71.5977 63.8516V59.5156C71.5977 57.1849 71.806 55.2318 72.2227 53.6562C72.6523 52.0807 73.2578 50.8177 74.0391 49.8672C74.8203 48.9036 75.7578 48.2135 76.8516 47.7969C77.9583 47.3802 79.1953 47.1719 80.5625 47.1719C81.6693 47.1719 82.6849 47.3086 83.6094 47.582C84.5469 47.8424 85.3802 48.2656 86.1094 48.8516C86.8385 49.4245 87.457 50.1927 87.9648 51.1562C88.4857 52.1068 88.8828 53.2721 89.1562 54.6523C89.4297 56.0326 89.5664 57.6536 89.5664 59.5156ZM85.9336 64.4375V58.9102C85.9336 57.6341 85.8555 56.5143 85.6992 55.5508C85.556 54.5742 85.3411 53.7409 85.0547 53.0508C84.7682 52.3607 84.4036 51.8008 83.9609 51.3711C83.5312 50.9414 83.0299 50.6289 82.457 50.4336C81.8971 50.2253 81.2656 50.1211 80.5625 50.1211C79.7031 50.1211 78.9414 50.2839 78.2773 50.6094C77.6133 50.9219 77.0534 51.4232 76.5977 52.1133C76.1549 52.8034 75.8164 53.7083 75.582 54.8281C75.3477 55.9479 75.2305 57.3086 75.2305 58.9102V64.4375C75.2305 65.7135 75.3021 66.8398 75.4453 67.8164C75.6016 68.793 75.8294 69.6393 76.1289 70.3555C76.4284 71.0586 76.793 71.638 77.2227 72.0938C77.6523 72.5495 78.1471 72.888 78.707 73.1094C79.2799 73.3177 79.9115 73.4219 80.6016 73.4219C81.487 73.4219 82.2617 73.2526 82.9258 72.9141C83.5898 72.5755 84.1432 72.0482 84.5859 71.332C85.0417 70.6029 85.3802 69.6719 85.6016 68.5391C85.8229 67.3932 85.9336 66.026 85.9336 64.4375ZM93.9023 54.5352V53.0312C93.9023 51.9505 94.1367 50.9674 94.6055 50.082C95.0742 49.1966 95.7448 48.487 96.6172 47.9531C97.4896 47.4193 98.5247 47.1523 99.7227 47.1523C100.947 47.1523 101.988 47.4193 102.848 47.9531C103.72 48.487 104.391 49.1966 104.859 50.082C105.328 50.9674 105.562 51.9505 105.562 53.0312V54.5352C105.562 55.5898 105.328 56.5599 104.859 57.4453C104.404 58.3307 103.74 59.0404 102.867 59.5742C102.008 60.1081 100.973 60.375 99.7617 60.375C98.5508 60.375 97.5026 60.1081 96.6172 59.5742C95.7448 59.0404 95.0742 58.3307 94.6055 57.4453C94.1367 56.5599 93.9023 55.5898 93.9023 54.5352ZM96.6172 53.0312V54.5352C96.6172 55.1341 96.7279 55.7005 96.9492 56.2344C97.1836 56.7682 97.5352 57.2044 98.0039 57.543C98.4727 57.8685 99.0586 58.0312 99.7617 58.0312C100.465 58.0312 101.044 57.8685 101.5 57.543C101.956 57.2044 102.294 56.7682 102.516 56.2344C102.737 55.7005 102.848 55.1341 102.848 54.5352V53.0312C102.848 52.4193 102.73 51.8464 102.496 51.3125C102.275 50.7656 101.93 50.3294 101.461 50.0039C101.005 49.6654 100.426 49.4961 99.7227 49.4961C99.0326 49.4961 98.4531 49.6654 97.9844 50.0039C97.5286 50.3294 97.1836 50.7656 96.9492 51.3125C96.7279 51.8464 96.6172 52.4193 96.6172 53.0312ZM107.75 70.5508V69.0273C107.75 67.9596 107.984 66.9831 108.453 66.0977C108.922 65.2122 109.592 64.5026 110.465 63.9688C111.337 63.4349 112.372 63.168 113.57 63.168C114.794 63.168 115.836 63.4349 116.695 63.9688C117.568 64.5026 118.238 65.2122 118.707 66.0977C119.176 66.9831 119.41 67.9596 119.41 69.0273V70.5508C119.41 71.6185 119.176 72.5951 118.707 73.4805C118.251 74.3659 117.587 75.0755 116.715 75.6094C115.855 76.1432 114.82 76.4102 113.609 76.4102C112.398 76.4102 111.357 76.1432 110.484 75.6094C109.612 75.0755 108.935 74.3659 108.453 73.4805C107.984 72.5951 107.75 71.6185 107.75 70.5508ZM110.465 69.0273V70.5508C110.465 71.1497 110.576 71.7227 110.797 72.2695C111.031 72.8034 111.383 73.2396 111.852 73.5781C112.32 73.9036 112.906 74.0664 113.609 74.0664C114.312 74.0664 114.892 73.9036 115.348 73.5781C115.816 73.2396 116.161 72.8034 116.383 72.2695C116.604 71.7357 116.715 71.1628 116.715 70.5508V69.0273C116.715 68.4154 116.598 67.8424 116.363 67.3086C116.142 66.7747 115.797 66.3451 115.328 66.0195C114.872 65.681 114.286 65.5117 113.57 65.5117C112.88 65.5117 112.301 65.681 111.832 66.0195C111.376 66.3451 111.031 66.7747 110.797 67.3086C110.576 67.8424 110.465 68.4154 110.465 69.0273ZM114.469 51.6055L100.582 73.832L98.5508 72.543L112.438 50.3164L114.469 51.6055Z" fill="#55697B"/>
<mask id="path-3-inside-1_4246_4217" fill="white">
<path d="M88.11 2.08676C88.2203 1.16741 89.051 0.506306 89.9688 0.628787C103.717 2.46343 116.572 8.25175 126.819 17.244C137.476 26.5971 144.763 38.9363 147.636 52.4931C150.508 66.0498 148.819 80.1282 142.809 92.7104C137.03 104.811 127.54 114.93 115.618 121.737C114.822 122.192 113.814 121.91 113.348 121.121C112.856 120.288 113.157 119.214 113.995 118.732C125.215 112.277 134.147 102.722 139.598 91.3081C145.298 79.3743 146.901 66.0215 144.176 53.1634C141.451 40.3052 134.54 28.6019 124.432 19.7308C114.743 11.228 102.595 5.74552 89.6002 3.98792C88.6694 3.86201 87.9981 3.01941 88.11 2.08676Z"/>
</mask>
<path d="M88.11 2.08676C88.2203 1.16741 89.051 0.506306 89.9688 0.628787C103.717 2.46343 116.572 8.25175 126.819 17.244C137.476 26.5971 144.763 38.9363 147.636 52.4931C150.508 66.0498 148.819 80.1282 142.809 92.7104C137.03 104.811 127.54 114.93 115.618 121.737C114.822 122.192 113.814 121.91 113.348 121.121C112.856 120.288 113.157 119.214 113.995 118.732C125.215 112.277 134.147 102.722 139.598 91.3081C145.298 79.3743 146.901 66.0215 144.176 53.1634C141.451 40.3052 134.54 28.6019 124.432 19.7308C114.743 11.228 102.595 5.74552 89.6002 3.98792C88.6694 3.86201 87.9981 3.01941 88.11 2.08676Z" stroke="#55697B" stroke-width="8" stroke-linejoin="round" mask="url(#path-3-inside-1_4246_4217)"/>
<path d="M118.24 119.985C118.24 121.633 116.843 122.97 115.12 122.97C113.397 122.97 112 121.633 112 119.985C112 118.336 113.397 117 115.12 117C116.843 117 118.24 118.336 118.24 119.985Z" fill="#55697B"/>
</svg>
