<svg width="23" height="22" viewBox="0 0 23 22" fill="none" xmlns="http://www.w3.org/2000/svg">
<path d="M0.25 2.73918C0.25 2.01766 0.503386 1.42242 1.01014 0.953463C1.51688 0.48448 2.17568 0.25 2.98649 0.25C3.78283 0.25 4.42712 0.480866 4.9194 0.94264C5.42615 1.41883 5.67954 2.03931 5.67954 2.80411C5.67954 3.49675 5.4334 4.07394 4.94112 4.53571C4.43437 5.0119 3.76834 5.25 2.94305 5.25H2.92133C2.12499 5.25 1.4807 5.0119 0.988417 4.53571C0.496132 4.05952 0.25 3.46067 0.25 2.73918ZM0.532336 21.6786V7.21969H5.35376V21.6786H0.532336ZM8.0251 21.6786H12.8465V13.605C12.8465 13.0999 12.9044 12.7103 13.0203 12.4361C13.223 11.9455 13.5306 11.5306 13.9433 11.1916C14.3559 10.8524 14.8735 10.6829 15.4961 10.6829C17.1178 10.6829 17.9286 11.7724 17.9286 13.9513V21.6786H22.75V13.3885C22.75 11.2529 22.2432 9.63311 21.2297 8.52922C20.2162 7.42532 18.8769 6.87337 17.2119 6.87337C15.3441 6.87337 13.889 7.67424 12.8465 9.27597V9.31926H12.8248L12.8465 9.27597V7.21969H8.0251C8.05405 7.68145 8.06853 9.11723 8.06853 11.5271C8.06853 13.9369 8.05405 17.3207 8.0251 21.6786Z" fill="white"/>
</svg>
