<svg width="23" height="23" viewBox="0 0 23 23" fill="none" xmlns="http://www.w3.org/2000/svg">
<path d="M11.5 0.25C15.9939 0.25 18.241 0.250425 19.8594 1.32129C20.5819 1.79941 21.2006 2.4181 21.6787 3.14062C22.7496 4.75905 22.75 7.00608 22.75 11.5C22.75 15.9939 22.7496 18.241 21.6787 19.8594C21.2006 20.5819 20.5819 21.2006 19.8594 21.6787C18.241 22.7496 15.9939 22.75 11.5 22.75C7.00608 22.75 4.75905 22.7496 3.14062 21.6787C2.4181 21.2006 1.79941 20.5819 1.32129 19.8594C0.250425 18.241 0.25 15.9939 0.25 11.5C0.25 7.00608 0.250425 4.75905 1.32129 3.14062C1.79941 2.4181 2.4181 1.79941 3.14062 1.32129C4.75905 0.250425 7.00608 0.25 11.5 0.25ZM11.5 5.67578C8.28359 5.67592 5.67598 8.2836 5.67578 11.5C5.67578 14.7166 8.28347 17.3241 11.5 17.3242C14.7167 17.3242 17.3242 14.7167 17.3242 11.5C17.324 8.28351 14.7165 5.67578 11.5 5.67578ZM11.5 7.64648C13.6283 7.64648 15.3543 9.3718 15.3545 11.5C15.3545 13.6284 13.6284 15.3545 11.5 15.3545C9.37175 15.3544 7.64648 13.6283 7.64648 11.5C7.64668 9.37188 9.37187 7.64662 11.5 7.64648ZM17.5547 4.01465C16.7989 4.01465 16.1855 4.62797 16.1855 5.38379C16.1857 6.13947 16.799 6.75195 17.5547 6.75195C18.3103 6.75188 18.9227 6.13942 18.9229 5.38379C18.9229 4.62802 18.3104 4.01472 17.5547 4.01465Z" fill="white"/>
</svg>
