<svg width="24" height="18" viewBox="0 0 24 18" fill="none" xmlns="http://www.w3.org/2000/svg">
<path d="M12.651 17.5168L7.77847 17.4257C6.20083 17.394 4.61927 17.4573 3.07257 17.1286C0.719686 16.6374 0.552999 14.2289 0.378579 12.2087C0.138246 9.36845 0.231286 6.47669 0.684826 3.66019C0.940864 2.07983 1.94848 1.13682 3.50672 1.03421C8.76692 0.661794 14.0621 0.705928 19.3107 0.879673C19.865 0.8956 20.4231 0.982655 20.9697 1.08175C23.6677 1.56504 23.7335 4.29437 23.9084 6.59195C24.0828 8.91324 24.0092 11.2464 23.6758 13.5519C23.4083 15.4608 22.8966 17.0616 20.7371 17.2161C18.0313 17.4182 15.3876 17.5809 12.6742 17.5291C12.6744 17.5168 12.6588 17.5168 12.651 17.5168ZM9.78644 12.6841C11.8255 11.4877 13.8256 10.3112 15.853 9.12285C13.8101 7.92646 11.8138 6.75001 9.78644 5.56165V12.6841Z" fill="white"/>
</svg>
