<svg width="38" height="38" viewBox="0 0 38 38" fill="none" xmlns="http://www.w3.org/2000/svg">
<path d="M13.9834 15.3117C15.875 15.3117 17.4147 13.7556 17.4147 11.8439V10.0431H10.5498V11.8439C10.5498 13.7556 12.0896 15.3117 13.9811 15.3117H13.9834Z" fill="white"/>
<path d="M23.5783 15.3117C25.4699 15.3117 27.0096 13.7556 27.0096 11.8439V10.0431H20.147V11.8439C20.147 13.7556 21.6867 15.3117 23.5783 15.3117Z" fill="white"/>
<path d="M25.8057 0H11.7926C5.27948 0 0 5.33556 0 11.9179V26.0798C0 32.6621 5.27948 37.9977 11.7926 37.9977H25.8057C32.3188 37.9977 37.5983 32.6621 37.5983 26.0798V11.9179C37.5983 5.33556 32.3188 0 25.8057 0ZM7.82213 7.28416H29.7396V11.844C29.7396 15.2771 26.9754 18.0707 23.5783 18.0707C21.6411 18.0707 19.9117 17.1634 18.7809 15.7458C17.6501 17.1634 15.9207 18.0707 13.9834 18.0707C10.5864 18.0707 7.82213 15.2771 7.82213 11.844V7.28416ZM23.0986 30.6027C22.0272 32.1404 20.492 33.0223 18.886 33.0223C17.28 33.0223 15.7448 32.1404 14.6733 30.6027L7.99347 21.9241H11.6235L16.9122 29.0097C17.4719 29.8131 18.1732 30.2541 18.886 30.2541C19.5987 30.2541 20.3001 29.8131 20.8598 29.0097L26.1484 21.9241H29.7785L23.0986 30.6027Z" fill="white"/>
</svg>
